<?xml version="1.0" encoding="utf-8"?>
<!DOCTYPE svg PUBLIC "-//W3C//DTD SVG 1.1//EN" "http://www.w3.org/Graphics/SVG/1.1/DTD/svg11.dtd">
<svg xmlns="http://www.w3.org/2000/svg" xml:space="preserve" width="128" height="128">
  <circle cx="64" cy="64" r="64" fill="#B2E3FF"/>
  <path fill="#A9D8F2" d="M123.785 86.845c-.067-.051-.132-.103-.2-.153.099-.014.19-.024.273-.031.018-.047.038-.094.056-.141-.189-.147-.381-.295-.576-.442.194-.026.364-.042.494-.042-.239-.191-.49-.383-.743-.572.195-.025.365-.042.495-.042-.239-.19-.49-.382-.743-.571.195-.026.364-.043.494-.043-.239-.19-.49-.382-.743-.572.195-.025.365-.041.495-.041-.239-.191-.49-.383-.743-.572.195-.026.365-.042.495-.042-.239-.191-.489-.382-.743-.572.195-.026.365-.042.495-.042-.238-.191-.489-.382-.743-.572.195-.025.365-.041.495-.041-.238-.191-.489-.383-.742-.572.194-.026.364-.043.494-.043-.238-.19-.489-.381-.742-.571.194-.026.364-.042.495-.042-.239-.191-.49-.383-.743-.572.194-.025.364-.042.495-.042-.239-.19-.49-.382-.743-.571.194-.026.364-.043.495-.043-.239-.19-.49-.382-.743-.572.194-.025.365-.041.495-.041-.239-.191-.49-.383-.743-.572.195-.026.365-.042.495-.042-.239-.191-.49-.382-.743-.572.195-.026.365-.042.495-.042-.239-.191-.49-.382-.743-.572.195-.025.365-.041.495-.041-.239-.191-.49-.383-.743-.572.195-.026.365-.043.495-.043-.239-.19-.49-.381-.743-.571.195-.026.365-.042.495-.042-.239-.191-.49-.383-.743-.572.195-.025.365-.042.495-.042-.239-.19-.49-.382-.743-.571.195-.026.365-.043.495-.043-.239-.19-.49-.382-.743-.572.195-.025.365-.041.495-.041-.239-.191-.49-.383-.743-.572.195-.026.365-.042.495-.042-.238-.191-.49-.382-.743-.572.195-.026.365-.042.495-.042-.238-.191-.489-.382-.742-.572.194-.025.364-.041.494-.041-.238-.191-.489-.383-.742-.572.194-.026.364-.043.494-.043-.238-.19-.489-.381-.742-.571.194-.026.364-.042.494-.042-.238-.191-.489-.383-.742-.572.194-.025.364-.042.495-.042-.239-.19-.49-.382-.743-.571.194-.026.365-.043.495-.043-.239-.19-.49-.382-.743-.572.195-.025.364-.041.494-.041-.239-.191-.49-.383-.743-.572.195-.026.365-.042.495-.042-.239-.191-.49-.382-.742-.572.194-.026.364-.042.494-.042-.239-.191-.49-.382-.743-.572.195-.025.365-.041.495-.041-.239-.191-.49-.383-.742-.572.194-.026.364-.043.494-.043-.239-.19-.49-.381-.743-.571.195-.026.365-.042.495-.042-.239-.191-.49-.383-.743-.572.195-.025.365-.042.495-.042-.239-.19-.49-.382-.742-.571.194-.026.364-.043.494-.043-.239-.19-.49-.382-.743-.572.195-.025.365-.041.495-.041-.239-.191-.49-.382-.742-.572.194-.026.364-.042.494-.042-.238-.191-.49-.382-.743-.572.195-.026.365-.042.495-.042-.238-.191-.489-.382-.742-.572.194-.026.364-.042.494-.042-.238-.191-.489-.382-.742-.572.194-.026.364-.042.494-.042-.238-.191-.489-.382-.741-.572.193-.026.363-.042.493-.042-.238-.191-.489-.382-.742-.572.194-.026.364-.042.495-.042-.239-.191-.49-.382-.742-.572.193-.026.364-.042.494-.042-.239-.191-.49-.382-.743-.572.195-.026.365-.042.495-.042-.239-.191-.49-.382-.742-.572.194-.026.364-.042.494-.042-.239-.191-.49-.382-.743-.572.195-.026.365-.042.495-.042-.239-.191-.49-.382-.742-.572.194-.026.364-.042.494-.042-.239-.191-.49-.382-.743-.572.195-.026.365-.042.495-.042-.239-.191-.49-.382-.743-.572.195-.026.365-.042.495-.042-.239-.191-.49-.382-.742-.572.194-.026.364-.042.494-.042-.239-.191-.49-.382-.743-.572.195-.026.365-.042.495-.042-.239-.191-.49-.382-.742-.572.194-.026.364-.042.494-.042-.239-.191-.49-.382-.743-.573.194-.026.364-.042.494-.042-.238-.191-.49-.382-.743-.572.195-.026.365-.042.495-.042-.238-.191-.489-.382-.742-.572.194-.026.364-.042.494-.042-.238-.191-.489-.382-.742-.572.194-.026.364-.042.494-.042-.238-.191-.489-.382-.742-.572.194-.026.364-.042.494-.042-.238-.191-.489-.382-.742-.572.194-.026.364-.042.495-.042-.239-.191-.49-.382-.743-.572.194-.026.365-.042.495-.042-.239-.191-.49-.382-.743-.572.195-.026.365-.042.495-.042-.239-.191-.49-.382-.743-.572.195-.026.365-.042.495-.042-.239-.191-.49-.382-.743-.572.195-.026.365-.042.495-.042-.239-.191-.49-.382-.743-.572.195-.026.365-.042.495-.042-.239-.191-.49-.382-.743-.572.195-.026.365-.042.495-.042-.239-.191-.49-.382-.743-.572.195-.026.365-.042.495-.042-.239-.191-.49-.382-.743-.572.195-.026.365-.042.495-.042-.239-.191-.49-.382-.743-.572.195-.026.365-.042.495-.042-.239-.191-.49-.382-.743-.572.195-.026.365-.042.495-.042-.239-.191-.49-.382-.743-.572.195-.026.365-.042.495-.042-.239-.191-.489-.382-.743-.572.195-.026.365-.042.495-.042-.238-.191-.489-.382-.743-.572.195-.026.365-.042.495-.042-.238-.191-.489-.382-.742-.572.194-.026.364-.042.494-.042-.238-.191-.489-.382-.742-.572.194-.026.364-.042.495-.042-.239-.191-.49-.382-.743-.572.194-.026.364-.042.495-.042-.239-.191-.49-.382-.743-.572.194-.026.364-.042.495-.042-.239-.191-.49-.382-.743-.572.194-.026.365-.042.495-.042-.239-.191-.49-.382-.743-.572.195-.026.365-.042.495-.042-.239-.191-.491-.382-.743-.573.194-.026.364-.042.494-.042-.239-.191-.49-.382-.742-.572.194-.026.364-.042.494-.042-.239-.191-.49-.382-.743-.572.195-.026.365-.042.495-.042-.239-.191-.49-.382-.742-.572.194-.026.364-.042.494-.042-.239-.191-.49-.382-.743-.572.195-.026.365-.042.495-.042-.239-.191-.49-.382-.743-.572.195-.026.365-.042.495-.042-.239-.191-.49-.382-.742-.572.194-.026.364-.042.494-.042-.239-.191-.49-.382-.743-.572.195-.026.365-.042.495-.042-.239-.191-.489-.382-.742-.572.194-.026.364-.042.494-.042-.238-.191-.489-.382-.743-.572.195-.026.365-.042.495-.042-.238-.191-.489-.382-.741-.572.193-.026.363-.042.493-.042-.238-.191-.489-.382-.742-.572.185-.037.355-.053.485-.053-.304-.243-.618-.485-.943-.727-.178-.133-.363-.264-.548-.396-.147-.106-.292-.212-.442-.318-.266-.184-.537-.365-.813-.545-.075-.049-.146-.1-.223-.149-.322-.209-.652-.416-.988-.621-.029-.019-.059-.037-.089-.056-.364-.222-.736-.439-1.114-.653l-.003-.001c-1.147-.651-2.354-1.261-3.595-1.813-.002 0-.004-.001-.005-.002C89.599 25.101 85.664 24 82 24c-13.638 0-19.597 13.447-25.185 26.449-6.155 14.326-12.52 29.141-28.99 29.141-1.146 0-2.138.799-2.384 1.919-.134.607-.021 1.218.271 1.729.055.216.139.421.249.613.054.217.138.422.247.614.055.216.139.421.249.614.054.216.138.421.247.613.055.217.139.422.249.615.054.215.138.42.247.613.055.217.139.421.248.614.055.216.139.421.249.614.054.216.138.421.247.613.055.217.139.422.249.614.055.217.139.423.249.616.055.215.138.42.248.611.055.217.138.422.248.614.054.216.138.421.248.614.055.216.138.421.248.614.054.216.138.421.247.614.056.215.139.42.248.613.055.217.139.422.248.614.056.216.139.421.248.614.055.216.139.421.248.613.056.217.139.422.248.614.055.216.139.421.248.614.055.216.138.421.248.613.054.217.138.422.248.615.054.215.138.42.248.613.055.216.138.421.248.614.054.216.138.421.248.614.055.216.138.42.248.613.054.217.138.422.248.614.055.216.138.421.248.614.054.216.138.421.248.613.055.217.138.422.248.614.054.216.138.421.247.614.056.216.139.421.248.613.055.217.139.422.248.615.056.217.14.422.249.615.056.215.139.42.248.612.055.216.139.421.247.614.056.216.14.421.249.613.055.217.139.422.247.614.055.216.139.421.248.614.055.216.139.421.249.613.054.217.138.422.247.615.055.215.139.42.249.613.054.216.138.421.247.614.055.216.139.421.249.614.054.215.138.42.247.613.055.217.139.422.249.614.054.216.138.421.247.614.055.216.139.421.249.613.054.217.138.422.247.614.055.216.139.421.249.614.054.216.138.421.247.613.055.217.139.422.249.615.054.215.138.42.247.613.055.217.139.421.248.614.055.216.139.421.249.614.054.216.138.42.246.613.056.217.14.422.25.614.054.216.138.421.246.614.057.217.141.423.25.617.056.215.139.418.248.61.055.216.139.421.248.614.056.216.139.421.248.614.055.216.139.421.248.614.055.215.139.42.248.613.039.157.11.301.18.446C49.054 126.659 56.369 128 64 128c27.295 0 50.585-17.094 59.785-41.155z"/>
  <path fill="#E2854C" d="M54 101v-9.206c0-1.349-.65-2.44-2-2.44s-2 1.092-2 2.44V101h4zm8 0v-9.206c0-1.349-.65-2.44-2-2.44s-2 1.092-2 2.44V101h4z"/>
  <path fill="#356178" d="M61.46 93.244c-9.892 0-21.875-3.111-34.654-8.997-1.042-.479-1.608-1.621-1.363-2.739.245-1.121 1.236-1.919 2.384-1.919 16.471 0 22.835-14.813 28.99-29.141C62.403 37.447 68.362 24 82 24c7 0 15 4 20 8-1 0-4.229.87-5.197 1.128-4.632 1.23-5.163 9.471-5.777 19.014-.668 10.379-1.429 22.144-7.463 31.238-4.282 6.453-11.927 9.864-22.103 9.864z"/>
  <path fill="#2D5266" d="M96.803 33.128c.078-.021.142-.067.214-.096-19.421-.405-7.792 73.112-71.399 50.001.234.52.641.961 1.188 1.213 12.779 5.886 24.764 8.997 34.654 8.997 10.176 0 17.821-3.412 22.103-9.865 6.034-9.094 6.795-20.858 7.463-31.238.614-9.541 1.145-17.782 5.777-19.012z"/>
  <path fill="#4681A0" d="M90.578 51.012c-.268-.267-.596-.472-.956-.591-1.995-.663-4.091-1.001-6.224-1.001-10.067 0-19.268 7.347-22.375 17.867-2.436 8.248-1.017 16.818 3.891 23.512.116.157.255.305.405.43l1.888 1.573c7.313-1.077 12.928-4.253 16.355-9.421 6.033-9.094 6.794-20.858 7.462-31.238.014-.215.027-.427.043-.644l-.489-.487z"/>
  <path fill="#3D718C" d="M90.578 51.012c-.268-.267-.596-.472-.956-.591-1.639-.544-3.348-.857-5.087-.956-4.439 12.494-9.359 28.598-22.979 35.122.826 2.19 1.941 4.281 3.356 6.212.116.157.255.305.405.43l1.888 1.573c5.473-.807 9.993-2.788 13.358-5.901.012-.01.022-.021.034-.03.519-.481 1.003-.996 1.466-1.53.08-.095.159-.191.238-.287.444-.533.869-1.086 1.258-1.672 6.034-9.094 6.795-20.858 7.463-31.238.014-.217.027-.429.042-.645l-.486-.487z"/>
  <path fill="#90B3C6" d="M63.69 70.602c3.108-10.518 12.309-17.865 22.375-17.865 1.661 0 3.286.265 4.872.67.028-.419.061-.849.087-1.266.014-.215.027-.427.043-.644l-.489-.486c-.268-.267-.596-.472-.956-.591-1.995-.663-4.091-1.001-6.224-1.001-10.067 0-19.268 7.347-22.375 17.867-2.436 8.248-1.017 16.817 3.891 23.512.116.157.255.306.405.429l.861.721c-3.736-6.325-4.668-13.958-2.49-21.346z"/>
  <path fill="#86A6B8" d="M64.914 90.798c.116.157.255.306.405.429l.861.721c-1.499-2.536-2.538-5.285-3.114-8.143-.49.274-.994.534-1.51.781.828 2.189 1.943 4.281 3.358 6.212zm25.664-39.786c-.268-.267-.596-.472-.956-.591-1.639-.544-3.348-.857-5.087-.956-.402 1.133-.811 2.295-1.228 3.478.91-.122 1.828-.205 2.758-.205 1.661 0 3.286.265 4.873.67.027-.419.06-.849.086-1.266.014-.217.027-.429.042-.645l-.488-.485z"/>
  <path fill="#F5F5F5" d="M86.411 35.65c0 2.694-2.185 4.882-4.877 4.882-2.699 0-4.888-2.188-4.888-4.882 0-2.696 2.188-4.882 4.888-4.882 2.695 0 4.877 2.186 4.877 4.882z"/>
  <circle cx="81.529" cy="35.65" r="2.441" fill="#242424"/>
  <path fill="#E78244" d="M92 32c0 1.818.416 3.535 1.14 5.079.804-2.081 1.952-3.497 3.663-3.951C97.771 32.87 101 32 102 32c-2.383-1.906-5.45-3.808-8.763-5.281C92.453 28.314 92 30.103 92 32z"/>
  <path fill="#D97A40" d="M92.316 34.704c.192.827.471 1.622.822 2.375.004-.01.008-.018.013-.027.104-.266.213-.521.327-.764.061-.126.125-.244.188-.365.082-.155.166-.305.253-.449.066-.109.134-.217.203-.319.114-.169.236-.327.36-.478.049-.058.094-.124.144-.179.174-.195.36-.367.555-.527.064-.053.135-.1.201-.149.151-.111.31-.212.472-.302.07-.039.141-.078.212-.113.234-.112.478-.21.735-.279.078-.021.142-.067.214-.096-1.806-.037-3.343.567-4.699 1.672z"/>
</svg>